<mxfile host="65bd71144e">
    <diagram id="HXTLE8vZZKyUpAfEWYLg" name="PÃ¡gina-1">
        <mxGraphModel dx="1595" dy="381" grid="0" gridSize="10" guides="1" tooltips="1" connect="1" arrows="1" fold="1" page="0" pageScale="1" pageWidth="827" pageHeight="1169" math="0" shadow="0">
            <root>
                <mxCell id="0"/>
                <mxCell id="1" parent="0"/>
                <mxCell id="21" style="edgeStyle=none;html=1;exitX=0;exitY=1;exitDx=0;exitDy=-15;exitPerimeter=0;entryX=0.5;entryY=0;entryDx=0;entryDy=0;" edge="1" parent="1" source="2" target="14">
                    <mxGeometry relative="1" as="geometry"/>
                </mxCell>
                <mxCell id="22" style="edgeStyle=none;html=1;exitX=0.145;exitY=1;exitDx=0;exitDy=-4.35;exitPerimeter=0;entryX=0.5;entryY=0;entryDx=0;entryDy=0;" edge="1" parent="1" source="2" target="5">
                    <mxGeometry relative="1" as="geometry"/>
                </mxCell>
                <mxCell id="23" style="edgeStyle=none;html=1;exitX=0.855;exitY=1;exitDx=0;exitDy=-4.35;exitPerimeter=0;entryX=0.5;entryY=0;entryDx=0;entryDy=0;" edge="1" parent="1" source="2" target="4">
                    <mxGeometry relative="1" as="geometry"/>
                </mxCell>
                <mxCell id="24" style="edgeStyle=none;html=1;exitX=1;exitY=1;exitDx=0;exitDy=-15;exitPerimeter=0;entryX=0.5;entryY=0;entryDx=0;entryDy=0;" edge="1" parent="1" source="2" target="3">
                    <mxGeometry relative="1" as="geometry"/>
                </mxCell>
                <mxCell id="2" value="SportMark" style="shape=cylinder3;whiteSpace=wrap;html=1;boundedLbl=1;backgroundOutline=1;size=15;" vertex="1" parent="1">
                    <mxGeometry x="260" y="80" width="90" height="60" as="geometry"/>
                </mxCell>
                <mxCell id="3" value="usuarios" style="swimlane;" vertex="1" parent="1">
                    <mxGeometry x="637" y="187" width="180" height="120" as="geometry"/>
                </mxCell>
                <mxCell id="27" value="&lt;br&gt;&lt;table style=&quot;border-left-style: none ; border-top-style: none ; border-right-style: none ; border-bottom-style: none ; border-collapse: collapse&quot;&gt;&lt;tbody&gt;&lt;tr&gt;&lt;td style=&quot;text-align: left ; border-style: none ; padding-left: 15px&quot;&gt;&lt;b&gt;usu_id&lt;/b&gt;&lt;/td&gt;&lt;td style=&quot;text-align: left ; border-style: none ; padding-left: 15px&quot;&gt;&lt;font color=&quot;#717171&quot;&gt;int AI PK&lt;/font&gt;&lt;/td&gt;&lt;/tr&gt;&lt;tr&gt;&lt;td style=&quot;text-align: left ; border-style: none ; padding-left: 15px&quot;&gt;usu_email&lt;/td&gt;&lt;td style=&quot;text-align: left ; border-style: none ; padding-left: 15px&quot;&gt;&lt;font color=&quot;#717171&quot;&gt;varchar(45)&lt;/font&gt;&lt;/td&gt;&lt;/tr&gt;&lt;tr&gt;&lt;td style=&quot;text-align: left ; border-style: none ; padding-left: 15px&quot;&gt;usu_clave&lt;/td&gt;&lt;td style=&quot;text-align: left ; border-style: none ; padding-left: 15px&quot;&gt;&lt;font color=&quot;#717171&quot;&gt;varchar(45)&lt;/font&gt;&lt;/td&gt;&lt;/tr&gt;&lt;tr&gt;&lt;td style=&quot;text-align: left ; border-style: none ; padding-left: 15px&quot;&gt;usu_nombres&lt;/td&gt;&lt;td style=&quot;text-align: left ; border-style: none ; padding-left: 15px&quot;&gt;&lt;font color=&quot;#717171&quot;&gt;varchar(45)&lt;/font&gt;&lt;/td&gt;&lt;/tr&gt;&lt;tr&gt;&lt;td style=&quot;text-align: left ; border-style: none ; padding-left: 15px&quot;&gt;usu_apellidos&lt;/td&gt;&lt;td style=&quot;text-align: left ; border-style: none ; padding-left: 15px&quot;&gt;&lt;font color=&quot;#717171&quot;&gt;varchar(45)&lt;/font&gt;&lt;/td&gt;&lt;/tr&gt;&lt;/tbody&gt;&lt;/table&gt;" style="text;html=1;align=center;verticalAlign=middle;resizable=0;points=[];autosize=1;strokeColor=none;fillColor=none;" vertex="1" parent="3">
                    <mxGeometry x="-10" y="10" width="180" height="100" as="geometry"/>
                </mxCell>
                <mxCell id="4" value="marcadores" style="swimlane;startSize=23;" vertex="1" parent="1">
                    <mxGeometry x="393" y="187" width="190" height="220" as="geometry"/>
                </mxCell>
                <mxCell id="5" value="equipos" style="swimlane;" vertex="1" parent="1">
                    <mxGeometry x="175" y="187" width="170" height="70" as="geometry">
                        <mxRectangle x="130" y="190" width="80" height="23" as="alternateBounds"/>
                    </mxGeometry>
                </mxCell>
                <mxCell id="29" value="&lt;table style=&quot;border-left-style: none ; border-top-style: none ; border-right-style: none ; border-bottom-style: none ; border-collapse: collapse&quot;&gt;&lt;tbody&gt;&lt;tr&gt;&lt;td style=&quot;border-left-style: none ; border-top-style: none ; border-right-style: none ; border-bottom-style: none ; padding-left: 15px&quot;&gt;&lt;b&gt;equi_id&lt;/b&gt;&lt;/td&gt;&lt;td style=&quot;border-left-style: none ; border-top-style: none ; border-right-style: none ; border-bottom-style: none ; padding-left: 15px&quot;&gt;&lt;font color=&quot;#717171&quot;&gt;&lt;u&gt;int AI PK&lt;/u&gt;&lt;/font&gt;&lt;/td&gt;&lt;/tr&gt;&lt;tr&gt;&lt;td style=&quot;border-left-style: none ; border-top-style: none ; border-right-style: none ; border-bottom-style: none ; padding-left: 15px&quot;&gt;&lt;b&gt;equi_nombre&lt;/b&gt;&lt;/td&gt;&lt;td style=&quot;border-left-style: none ; border-top-style: none ; border-right-style: none ; border-bottom-style: none ; padding-left: 15px&quot;&gt;&lt;font color=&quot;#717171&quot;&gt;&lt;u&gt;varchar(45)&lt;/u&gt;&lt;/font&gt;&lt;/td&gt;&lt;/tr&gt;&lt;/tbody&gt;&lt;/table&gt;" style="text;html=1;align=left;verticalAlign=middle;resizable=0;points=[];autosize=1;strokeColor=none;fillColor=none;" vertex="1" parent="5">
                    <mxGeometry x="-10" y="30" width="180" height="40" as="geometry"/>
                </mxCell>
                <mxCell id="14" value="deportes" style="swimlane;" vertex="1" parent="1">
                    <mxGeometry x="-72" y="187" width="174" height="73" as="geometry"/>
                </mxCell>
                <mxCell id="31" value="&lt;table style=&quot;border-left-style: none ; border-top-style: none ; border-right-style: none ; border-bottom-style: none ; border-collapse: collapse&quot;&gt;&lt;tbody&gt;&lt;tr&gt;&lt;td style=&quot;border-left-style: none ; border-top-style: none ; border-right-style: none ; border-bottom-style: none ; padding-left: 15px&quot;&gt;&lt;b&gt;dep_id&lt;/b&gt;&lt;/td&gt;&lt;td style=&quot;border-left-style: none ; border-top-style: none ; border-right-style: none ; border-bottom-style: none ; padding-left: 15px&quot;&gt;&lt;font color=&quot;#717171&quot;&gt;int AI PK&lt;/font&gt;&lt;/td&gt;&lt;/tr&gt;&lt;tr&gt;&lt;td style=&quot;border-left-style: none ; border-top-style: none ; border-right-style: none ; border-bottom-style: none ; padding-left: 15px&quot;&gt;&lt;b&gt;dep_nombre&lt;/b&gt;&lt;/td&gt;&lt;td style=&quot;border-left-style: none ; border-top-style: none ; border-right-style: none ; border-bottom-style: none ; padding-left: 15px&quot;&gt;&lt;font color=&quot;#717171&quot;&gt;varchar(45)&lt;/font&gt;&lt;/td&gt;&lt;/tr&gt;&lt;/tbody&gt;&lt;/table&gt;" style="text;html=1;align=left;verticalAlign=middle;resizable=0;points=[];autosize=1;strokeColor=none;fillColor=none;" vertex="1" parent="14">
                    <mxGeometry x="-7" y="32" width="175" height="36" as="geometry"/>
                </mxCell>
                <mxCell id="32" style="edgeStyle=none;html=1;" edge="1" parent="1" target="29">
                    <mxGeometry relative="1" as="geometry">
                        <mxPoint x="391" y="314" as="sourcePoint"/>
                    </mxGeometry>
                </mxCell>
                <mxCell id="33" value="" style="edgeStyle=none;html=1;exitX=1.005;exitY=0.954;exitDx=0;exitDy=0;exitPerimeter=0;entryX=0.008;entryY=0.263;entryDx=0;entryDy=0;entryPerimeter=0;" edge="1" parent="1" source="25" target="27">
                    <mxGeometry relative="1" as="geometry"/>
                </mxCell>
                <mxCell id="34" style="edgeStyle=none;html=1;entryX=0.48;entryY=1.122;entryDx=0;entryDy=0;entryPerimeter=0;exitX=0.001;exitY=0.859;exitDx=0;exitDy=0;exitPerimeter=0;" edge="1" parent="1" source="25" target="31">
                    <mxGeometry relative="1" as="geometry"/>
                </mxCell>
                <mxCell id="25" value="&lt;table style=&quot;border-left-style: none ; border-top-style: none ; border-right-style: none ; border-bottom-style: none ; border-collapse: collapse&quot;&gt;&lt;tbody&gt;&lt;tr&gt;&lt;td style=&quot;border-left-style: none ; border-top-style: none ; border-right-style: none ; border-bottom-style: none ; padding-left: 15px&quot;&gt;&lt;b&gt;mar_id&lt;/b&gt;&lt;/td&gt;&lt;td style=&quot;border-style: none ; padding-left: 15px&quot;&gt;&lt;font color=&quot;#717171&quot;&gt;int AI PK&lt;/font&gt;&lt;/td&gt;&lt;/tr&gt;&lt;tr&gt;&lt;td style=&quot;border-style: none ; padding-left: 15px&quot;&gt;mar_fechaevento&lt;/td&gt;&lt;td style=&quot;border-style: none ; padding-left: 15px&quot;&gt;&lt;font color=&quot;#717171&quot;&gt;date&lt;/font&gt;&lt;/td&gt;&lt;/tr&gt;&lt;tr&gt;&lt;td style=&quot;border-style: none ; padding-left: 15px&quot;&gt;mar_horaevento&lt;/td&gt;&lt;td style=&quot;border-style: none ; padding-left: 15px&quot;&gt;&lt;font color=&quot;#717171&quot;&gt;time&lt;/font&gt;&lt;/td&gt;&lt;/tr&gt;&lt;tr&gt;&lt;td style=&quot;border-style: none ; padding-left: 15px&quot;&gt;mar_fecharegistro&lt;/td&gt;&lt;td style=&quot;border-style: none ; padding-left: 15px&quot;&gt;&lt;font color=&quot;#717171&quot;&gt;date&lt;/font&gt;&lt;/td&gt;&lt;/tr&gt;&lt;tr&gt;&lt;td style=&quot;border-style: none ; padding-left: 15px&quot;&gt;mar_horaregistro&lt;/td&gt;&lt;td style=&quot;border-style: none ; padding-left: 15px&quot;&gt;&lt;font color=&quot;#717171&quot;&gt;time&lt;/font&gt;&lt;/td&gt;&lt;/tr&gt;&lt;tr&gt;&lt;td style=&quot;border-style: none ; padding-left: 15px&quot;&gt;equi_id1&lt;/td&gt;&lt;td style=&quot;border-left-style: none ; border-top-style: none ; border-right-style: none ; border-bottom-style: none ; padding-left: 15px&quot;&gt;&lt;font color=&quot;#717171&quot;&gt;int&lt;/font&gt;&lt;/td&gt;&lt;/tr&gt;&lt;tr&gt;&lt;td style=&quot;border-left-style: none ; border-top-style: none ; border-right-style: none ; border-bottom-style: none ; padding-left: 15px&quot;&gt;equi_id2&lt;/td&gt;&lt;td style=&quot;border-left-style: none ; border-top-style: none ; border-right-style: none ; border-bottom-style: none ; padding-left: 15px&quot;&gt;&lt;font color=&quot;#717171&quot;&gt;int&lt;/font&gt;&lt;/td&gt;&lt;/tr&gt;&lt;tr&gt;&lt;td style=&quot;border-left-style: none ; border-top-style: none ; border-right-style: none ; border-bottom-style: none ; padding-left: 15px&quot;&gt;mar_marcadorequi1&lt;/td&gt;&lt;td style=&quot;border-left-style: none ; border-top-style: none ; border-right-style: none ; border-bottom-style: none ; padding-left: 15px&quot;&gt;&lt;font color=&quot;#717171&quot;&gt;int&lt;/font&gt;&lt;/td&gt;&lt;/tr&gt;&lt;tr&gt;&lt;td style=&quot;border-left-style: none ; border-top-style: none ; border-right-style: none ; border-bottom-style: none ; padding-left: 15px&quot;&gt;mar_marcadorequi2&lt;/td&gt;&lt;td style=&quot;border-left-style: none ; border-top-style: none ; border-right-style: none ; border-bottom-style: none ; padding-left: 15px&quot;&gt;&lt;font color=&quot;#717171&quot;&gt;int&lt;/font&gt;&lt;/td&gt;&lt;/tr&gt;&lt;tr&gt;&lt;td style=&quot;border-left-style: none ; border-top-style: none ; border-right-style: none ; border-bottom-style: none ; padding-left: 15px&quot;&gt;dep_id&lt;/td&gt;&lt;td style=&quot;border-left-style: none ; border-top-style: none ; border-right-style: none ; border-bottom-style: none ; padding-left: 15px&quot;&gt;&lt;font color=&quot;#717171&quot;&gt;int&lt;/font&gt;&lt;/td&gt;&lt;/tr&gt;&lt;tr&gt;&lt;td style=&quot;border-left-style: none ; border-top-style: none ; border-right-style: none ; border-bottom-style: none ; padding-left: 15px&quot;&gt;usu_id&lt;/td&gt;&lt;td style=&quot;border-left-style: none ; border-top-style: none ; border-right-style: none ; border-bottom-style: none ; padding-left: 15px&quot;&gt;&lt;font color=&quot;#717171&quot;&gt;int&lt;/font&gt;&lt;/td&gt;&lt;/tr&gt;&lt;/tbody&gt;&lt;/table&gt;" style="text;html=1;align=left;verticalAlign=middle;resizable=0;points=[];autosize=1;strokeColor=none;fillColor=none;" vertex="1" parent="1">
                    <mxGeometry x="386" y="217" width="200" height="180" as="geometry"/>
                </mxCell>
            </root>
        </mxGraphModel>
    </diagram>
</mxfile>